<?xml version="1.0" standalone="no"?>
<!DOCTYPE svg PUBLIC "-//W3C//DTD SVG 20010904//EN"
 "http://www.w3.org/TR/2001/REC-SVG-20010904/DTD/svg10.dtd">
<svg version="1.0" xmlns="http://www.w3.org/2000/svg"
 width="150.000000pt" height="150.000000pt" viewBox="0 0 150.000000 150.000000"
 preserveAspectRatio="xMidYMid meet">
<metadata>
Created by potrace 1.11, written by Peter Selinger 2001-2013
</metadata>
<g transform="translate(0.000000,150.000000) scale(0.100000,-0.100000)"
fill="#000000" stroke="none">
<path d="M477 1445 c-15 -14 -35 -25 -43 -25 -17 0 -18 -12 -1 -29 10 -11 4
-13 -35 -8 -26 4 -49 3 -52 -2 -3 -5 -7 -45 -8 -90 -1 -44 -6 -81 -10 -81 -4
0 -5 -15 -3 -33 7 -53 -7 -64 -50 -39 -42 26 -64 27 -91 8 -19 -15 -19 -16 6
-62 25 -48 38 -154 19 -154 -13 0 -11 -34 3 -48 20 -20 -17 -15 -60 8 -35 19
-37 19 -40 2 -2 -10 -16 -23 -32 -29 -43 -16 -38 -40 21 -95 43 -40 50 -52 45
-73 -9 -36 22 -123 62 -173 32 -40 188 -171 320 -269 92 -69 186 -122 236
-133 27 -6 79 -32 123 -62 58 -40 86 -52 124 -56 27 -2 49 0 49 5 0 5 -23 22
-50 38 -32 19 -53 39 -57 55 -3 14 -10 31 -16 38 -16 21 14 13 73 -18 65 -35
71 -36 95 -10 10 11 28 20 41 20 27 0 39 17 36 46 -2 16 5 24 27 32 35 12 36
17 16 52 -23 40 -18 49 31 62 37 10 50 20 64 48 10 20 16 47 13 61 -4 23 -1
27 26 32 33 7 40 27 16 47 -23 19 -18 31 10 24 19 -5 26 -2 31 12 4 11 15 28
26 40 18 20 18 21 -2 46 -11 15 -20 33 -20 41 0 8 -8 25 -19 38 -10 13 -21 38
-25 55 -4 17 -20 44 -36 59 -17 16 -30 32 -30 37 0 19 62 5 124 -28 l67 -35
-3 33 c-2 27 -11 37 -47 57 -27 15 -48 36 -56 55 -17 40 -45 66 -124 111 -35
21 -96 67 -135 103 -39 36 -85 71 -103 78 -17 8 -53 39 -80 69 -67 77 -104 99
-151 89 -70 -14 -116 -11 -147 12 -34 24 -122 64 -139 64 -6 0 -24 -12 -39
-25z m251 -340 c17 -14 54 -62 83 -107 62 -97 147 -188 175 -188 11 0 36 14
54 30 37 33 52 37 69 17 23 -29 -130 -147 -191 -147 -13 0 -35 8 -49 18 -39
25 -115 118 -159 192 -21 36 -50 76 -64 90 l-27 24 -44 -24 c-32 -18 -48 -21
-55 -14 -15 15 18 51 89 98 63 43 80 44 119 11z m236 -44 c27 -29 17 -63 -25
-85 -35 -19 -38 -19 -63 -3 -33 22 -33 44 1 79 31 33 63 36 87 9z m-472 -116
c21 -46 -33 -77 -60 -35 -9 15 -10 26 -2 40 15 28 48 25 62 -5z m289 -177 c68
-70 73 -80 100 -192 20 -82 49 -140 74 -150 23 -8 18 -34 -9 -51 -20 -14 -28
-14 -45 -3 -26 16 -62 84 -96 183 -16 44 -36 97 -46 117 -18 36 -75 88 -97 88
-6 0 -32 -19 -57 -42 -82 -75 -115 -84 -162 -44 l-28 25 22 23 c21 20 26 21
55 10 37 -14 59 -3 120 60 30 30 46 38 73 38 29 0 44 -10 96 -62z"/>
<path d="M0 595 c0 -19 26 -43 137 -126 50 -38 105 -82 123 -99 48 -45 119
-94 178 -124 63 -30 62 -30 62 -12 0 8 -44 44 -97 80 -54 36 -132 94 -174 128
-125 103 -210 168 -220 168 -5 0 -9 -7 -9 -15z"/>
</g>
</svg>
